<svg xmlns="http://www.w3.org/2000/svg" xmlns:xlink="http://www.w3.org/1999/xlink" viewBox="0 0 24 24" version="1.1" width="48" height="48">
<g id="surface1">
<path style=" " d="M 18.667969 10.957031 L 18.480469 10.5625 C 18.480469 8.71875 17.582031 8.308594 16.636719 7.773438 C 16.636719 7.769531 16.636719 7.769531 16.636719 7.769531 C 16.800781 7.699219 17.015625 7.617188 17.09375 7.230469 C 17.617188 7.078125 17.691406 6.847656 17.769531 6.617188 C 17.917969 6.539063 18.292969 6.308594 18.292969 5.847656 C 18.519531 5.691406 18.671875 5.460938 18.59375 5.15625 C 18.820313 4.847656 18.894531 4.617188 18.820313 4.386719 C 19.121094 4 18.96875 3.769531 18.894531 3.539063 C 19.121094 3.078125 18.894531 2.617188 18.292969 2.695313 C 18.070313 2.308594 17.46875 2.386719 17.390625 2.386719 C 17.316406 2.230469 17.167969 2.15625 16.789063 2.230469 C 16.414063 2 16.113281 2 15.8125 2.15625 C 15.4375 1.847656 15.214844 2.078125 14.988281 2.15625 C 14.535156 2 14.460938 2.230469 14.238281 2.308594 C 13.785156 2.230469 13.636719 2.464844 13.410156 2.695313 C 13.410156 2.695313 13.289063 2.664063 13.183594 2.695313 C 12.453125 2.890625 12.15625 3.660156 12 4.0625 C 11.84375 3.660156 11.546875 2.890625 10.816406 2.691406 C 10.710938 2.664063 10.589844 2.691406 10.589844 2.691406 C 10.363281 2.460938 10.214844 2.230469 9.761719 2.308594 C 9.539063 2.230469 9.464844 2.003906 9.011719 2.15625 C 8.785156 2.078125 8.5625 1.847656 8.1875 2.15625 C 7.886719 2.003906 7.585938 2.003906 7.210938 2.230469 C 6.832031 2.15625 6.683594 2.230469 6.609375 2.386719 C 6.53125 2.386719 5.933594 2.308594 5.707031 2.695313 C 5.105469 2.617188 4.878906 3.078125 5.105469 3.539063 C 5.027344 3.769531 4.878906 4 5.179688 4.386719 C 5.105469 4.617188 5.179688 4.847656 5.40625 5.15625 C 5.328125 5.464844 5.480469 5.695313 5.707031 5.847656 C 5.707031 6.308594 6.082031 6.539063 6.230469 6.617188 C 6.308594 6.847656 6.382813 7.078125 6.90625 7.230469 C 6.984375 7.617188 7.203125 7.695313 7.363281 7.769531 C 7.363281 7.769531 7.363281 7.773438 7.363281 7.773438 C 6.417969 8.3125 5.519531 8.71875 5.519531 10.5625 L 5.332031 10.960938 C 4.152344 11.652344 3.269531 14.148438 4.9375 15.835938 C 5.09375 16.371094 5.152344 16.433594 5.3125 16.898438 C 5.664063 19.105469 7.3125 19.902344 7.707031 19.980469 C 8.261719 20.441406 8.632813 20.691406 9.5 21 C 10.289063 21.769531 11.132813 22 12 22 C 12.867188 22 13.710938 21.769531 14.5 21 C 15.367188 20.691406 15.738281 20.441406 16.292969 19.980469 C 16.6875 19.902344 18.335938 19.105469 18.6875 16.894531 C 18.847656 16.433594 18.90625 16.371094 19.0625 15.832031 C 20.730469 14.144531 19.847656 11.652344 18.667969 10.957031 Z M 17.578125 10.832031 C 17.5 11.582031 13.8125 8.359375 14.429688 8.28125 C 16.195313 7.984375 17.65625 8.957031 17.578125 10.832031 Z M 13.863281 9.109375 C 13.863281 9.648438 13.105469 10.054688 12 10.058594 C 10.894531 10.054688 10.136719 9.648438 10.136719 9.109375 C 10.136719 8.65625 10.710938 8.203125 11.34375 8 L 11.375 8 C 11.582031 7.929688 11.796875 7.886719 12 7.886719 C 12.203125 7.886719 12.417969 7.929688 12.625 8 L 12.65625 8 C 13.292969 8.203125 13.863281 8.65625 13.863281 9.109375 Z M 13.316406 3.613281 C 13.316406 3.75 13.382813 3.816406 13.382813 3.886719 C 13.582031 3.683594 13.714844 3.476563 13.917969 3.269531 C 13.917969 3.40625 13.851563 3.476563 13.984375 3.613281 C 14.117188 3.40625 14.25 3.269531 14.519531 3.132813 C 14.386719 3.339844 14.519531 3.40625 14.585938 3.476563 C 14.785156 3.339844 14.921875 3.203125 15.253906 3.066406 C 15.1875 3.203125 15.054688 3.269531 15.1875 3.40625 C 15.390625 3.269531 15.523438 3.203125 15.988281 3.066406 C 15.921875 3.203125 15.722656 3.269531 15.789063 3.40625 C 15.988281 3.339844 16.257813 3.269531 16.523438 3.203125 C 16.390625 3.339844 16.257813 3.40625 16.390625 3.476563 C 16.660156 3.40625 16.925781 3.269531 17.261719 3.40625 L 17.058594 3.613281 C 17.058594 3.613281 17.527344 3.613281 17.863281 3.613281 C 17.726563 3.816406 17.59375 3.953125 17.527344 4.230469 C 17.527344 4.230469 17.730469 4.230469 17.863281 4.230469 C 17.726563 4.640625 17.460938 4.707031 17.394531 4.84375 C 17.460938 4.914063 17.59375 4.914063 17.796875 4.84375 C 17.660156 5.117188 17.460938 5.257813 17.261719 5.460938 C 17.328125 5.527344 17.394531 5.527344 17.59375 5.460938 C 17.394531 5.664063 17.191406 5.804688 16.992188 6.007813 C 17.058594 6.078125 17.191406 6.078125 17.324219 6.078125 C 17.125 6.28125 16.789063 6.417969 16.523438 6.554688 C 16.589844 6.691406 16.726563 6.625 16.789063 6.625 C 16.589844 6.761719 16.257813 6.898438 15.988281 6.964844 C 16.054688 7.035156 16.121094 7.101563 16.257813 7.101563 C 15.921875 7.308594 15.453125 7.171875 15.320313 7.308594 C 15.320313 7.375 15.453125 7.445313 15.519531 7.511719 C 14.984375 7.511719 13.59375 7.59375 13.328125 6.496094 C 13.578125 6.15625 14.3125 5.421875 15 5 C 14.15625 5.234375 13.390625 5.75 12.984375 6.03125 C 11.914063 5.484375 12.714844 4.160156 13.316406 3.613281 Z M 7.207031 6.625 C 7.273438 6.625 7.410156 6.691406 7.476563 6.558594 C 7.207031 6.417969 6.875 6.28125 6.671875 6.078125 C 6.808594 6.078125 6.941406 6.078125 7.007813 6.007813 C 6.808594 5.804688 6.605469 5.664063 6.40625 5.460938 C 6.605469 5.53125 6.671875 5.53125 6.738281 5.460938 C 6.539063 5.257813 6.339844 5.117188 6.203125 4.84375 C 6.40625 4.914063 6.539063 4.914063 6.605469 4.84375 C 6.539063 4.707031 6.273438 4.640625 6.136719 4.230469 C 6.273438 4.230469 6.472656 4.230469 6.472656 4.230469 C 6.40625 3.953125 6.273438 3.816406 6.136719 3.613281 C 6.472656 3.613281 6.941406 3.613281 6.941406 3.613281 L 6.738281 3.40625 C 7.074219 3.269531 7.34375 3.40625 7.609375 3.476563 C 7.742188 3.40625 7.609375 3.339844 7.476563 3.199219 C 7.742188 3.269531 8.011719 3.339844 8.210938 3.40625 C 8.277344 3.269531 8.078125 3.203125 8.011719 3.066406 C 8.480469 3.203125 8.613281 3.269531 8.8125 3.40625 C 8.945313 3.269531 8.8125 3.203125 8.746094 3.066406 C 9.078125 3.203125 9.214844 3.339844 9.414063 3.476563 C 9.480469 3.40625 9.617188 3.339844 9.480469 3.132813 C 9.75 3.269531 9.882813 3.40625 10.015625 3.613281 C 10.152344 3.476563 10.085938 3.40625 10.085938 3.269531 C 10.285156 3.476563 10.417969 3.683594 10.617188 3.886719 C 10.617188 3.820313 10.6875 3.75 10.6875 3.613281 C 11.289063 4.160156 12.085938 5.484375 11.015625 6.03125 C 10.609375 5.75 9.84375 5.234375 9 5 C 9.6875 5.421875 10.421875 6.15625 10.671875 6.5 C 10.402344 7.59375 9.015625 7.515625 8.480469 7.515625 C 8.546875 7.445313 8.679688 7.378906 8.679688 7.308594 C 8.546875 7.171875 8.078125 7.308594 7.742188 7.105469 C 7.878906 7.105469 7.945313 7.035156 8.011719 6.96875 C 7.742188 6.898438 7.410156 6.761719 7.207031 6.625 Z M 9.570313 8.28125 C 10.1875 8.359375 6.5 11.582031 6.421875 10.832031 C 6.34375 8.957031 7.804688 7.984375 9.570313 8.28125 Z M 5.609375 15.003906 C 4.769531 14.324219 4.492188 12.417969 6.027344 11.601563 C 7.003906 11.398438 6.375 15.34375 5.609375 15.003906 Z M 9.105469 18.773438 C 8.710938 19.09375 7.582031 19.09375 6.71875 17.9375 C 6.121094 17.167969 6.320313 15.945313 6.652344 15.496094 C 7.117188 15.113281 7.914063 15.625 8.578125 16.398438 C 9.238281 17.101563 9.570313 18.386719 9.105469 18.773438 Z M 8.242188 14.332031 C 7.386719 13.773438 7.246094 12.523438 7.886719 11.484375 C 8.527344 10.441406 9.808594 10.09375 10.660156 10.648438 C 11.515625 11.207031 11.730469 12.523438 11.019531 13.496094 C 10.378906 14.46875 9.097656 14.816406 8.242188 14.332031 Z M 12 21 C 10.980469 20.988281 10.15625 19.988281 10.15625 19.703125 C 10.15625 19.273438 11.0625 19.152344 11.945313 19.152344 C 11.960938 19.152344 11.980469 19.15625 12 19.15625 C 12.019531 19.15625 12.035156 19.152344 12.054688 19.152344 C 12.9375 19.152344 13.84375 19.273438 13.84375 19.703125 C 13.84375 19.988281 13.019531 20.988281 12 21 Z M 12.058594 18.351563 C 12.039063 18.351563 12.019531 18.347656 12 18.347656 C 11.980469 18.347656 11.960938 18.351563 11.941406 18.351563 C 10.796875 18.351563 9.863281 17.511719 9.863281 16.460938 C 9.863281 15.414063 10.789063 14.578125 12 14.574219 C 13.210938 14.578125 14.136719 15.414063 14.136719 16.460938 C 14.136719 17.511719 13.203125 18.351563 12.058594 18.351563 Z M 12.980469 13.496094 C 12.269531 12.523438 12.484375 11.203125 13.339844 10.648438 C 14.191406 10.09375 15.472656 10.441406 16.113281 11.480469 C 16.753906 12.523438 16.613281 13.773438 15.757813 14.328125 C 14.902344 14.816406 13.621094 14.46875 12.980469 13.496094 Z M 17.28125 17.9375 C 16.417969 19.09375 15.289063 19.09375 14.894531 18.773438 C 14.429688 18.386719 14.761719 17.101563 15.425781 16.394531 C 16.089844 15.625 16.882813 15.109375 17.347656 15.496094 C 17.679688 15.945313 17.878906 17.167969 17.28125 17.9375 Z M 18.390625 15.003906 C 17.625 15.34375 16.996094 11.398438 17.972656 11.601563 C 19.507813 12.417969 19.230469 14.324219 18.390625 15.003906 Z "/>
</g>
</svg>