<svg xmlns="http://www.w3.org/2000/svg" xmlns:xlink="http://www.w3.org/1999/xlink" viewBox="0 0 50 50" version="1.1" width="50" height="50">
<path fill="currentColor" d="M 15.75 0 C 15.957031 0.304688 16.382813 0.597656 15.96875 1 C 15.453125 0.597656 14.929688 0.296875 13.6875 0.09375 C 14 0.394531 14.496094 0.695313 14.1875 1 C 13.566406 0.800781 12.859375 0.601563 12.03125 0.5 C 12.445313 0.902344 12.746094 1.203125 12.4375 1.40625 C 11.816406 1.105469 10.804688 0.894531 9.875 1.09375 L 10.46875 1.71875 C 10.570313 1.820313 9.023438 1.8125 8.09375 1.8125 C 8.402344 2.316406 8.824219 2.820313 9.03125 3.625 C 8.929688 3.726563 8.414063 3.625 8 3.625 C 8.414063 4.632813 9.242188 4.820313 9.65625 5.125 C 9.34375 5.324219 8.945313 5.226563 8.53125 5.125 C 8.839844 5.828125 9.542969 6.339844 10.0625 6.84375 C 9.957031 6.945313 9.746094 7.070313 9.125 6.96875 C 9.640625 7.574219 10.277344 8.066406 11 8.46875 C 10.792969 8.667969 10.382813 8.65625 9.96875 8.65625 C 10.585938 9.363281 11.421875 9.691406 12.25 10.09375 C 11.835938 10.394531 11.5 10.28125 11.1875 10.28125 C 11.707031 10.785156 12.664063 10.980469 13.59375 11.28125 C 13.386719 11.582031 13.257813 11.585938 12.84375 11.6875 C 13.773438 12.191406 15.21875 12.003906 15.53125 12.40625 C 15.53125 12.707031 15.246094 12.898438 14.9375 13 C 16.488281 13 20.613281 12.910156 21.4375 9.78125 C 19.886719 8.070313 16.980469 6.042969 12.125 3.625 C 15.949219 4.835938 19.355469 6.558594 22.25 8.875 C 25.660156 7.363281 23.277344 3.425781 21.625 1.8125 C 21.523438 2.214844 21.449219 2.429688 21.34375 2.53125 C 20.828125 1.925781 20.410156 1.316406 19.6875 0.8125 C 19.6875 1.117188 19.882813 1.417969 19.46875 1.71875 C 19.054688 1.214844 18.527344 0.808594 17.90625 0.40625 C 18.214844 0.910156 18.019531 1.109375 17.8125 1.3125 C 17.296875 0.808594 16.785156 0.402344 15.75 0 Z M 34.09375 0 C 33.15625 0.304688 32.644531 0.8125 32.125 1.21875 C 31.917969 1.015625 31.71875 0.820313 32.03125 0.3125 C 31.300781 0.71875 30.882813 1.117188 30.46875 1.625 C 30.054688 1.421875 30.25 1.023438 30.25 0.71875 C 29.523438 1.328125 29.113281 1.828125 28.59375 2.4375 C 28.488281 2.4375 28.382813 2.125 28.28125 1.71875 C 26.617188 3.242188 24.34375 7.191406 27.875 8.8125 C 30.785156 6.480469 34.214844 4.878906 38.0625 3.5625 C 33.175781 5.996094 30.25 8.027344 28.6875 9.75 C 29.519531 12.894531 33.691406 13.070313 35.25 12.96875 C 34.9375 12.765625 34.730469 12.679688 34.625 12.375 C 35.042969 12.171875 36.378906 12.382813 37.3125 11.875 C 36.898438 11.773438 36.800781 11.773438 36.59375 11.46875 C 37.425781 11.164063 38.449219 10.945313 38.96875 10.4375 C 38.660156 10.4375 38.351563 10.554688 37.9375 10.25 C 38.664063 9.847656 39.597656 9.421875 40.21875 8.8125 C 39.804688 8.710938 39.292969 8.726563 39.1875 8.625 C 39.914063 8.117188 40.542969 7.601563 41.0625 7.09375 C 40.542969 7.195313 40.230469 7.101563 40.125 7 C 40.644531 6.390625 41.375 5.992188 41.6875 5.28125 C 41.273438 5.484375 40.84375 5.484375 40.53125 5.28125 C 40.738281 4.875 41.585938 4.671875 42 3.65625 C 41.585938 3.65625 41.074219 3.757813 40.96875 3.65625 C 41.179688 2.84375 41.59375 2.320313 41.90625 1.8125 C 40.96875 1.8125 39.511719 1.820313 39.40625 1.71875 L 40.03125 1.125 C 39.09375 0.921875 38.167969 1.203125 37.4375 1.40625 C 37.125 1.101563 37.429688 0.804688 37.84375 0.5 C 37.015625 0.601563 36.277344 0.796875 35.65625 1 C 35.34375 0.695313 35.875 0.398438 36.1875 0.09375 C 34.941406 0.398438 34.425781 0.695313 33.90625 1 C 33.492188 0.59375 33.882813 0.304688 34.09375 0 Z M 25.28125 13.25 C 22.5 13.25 19.71875 15.386719 19.71875 16.5625 C 19.71875 18.058594 21.96875 19.6875 25.28125 19.6875 C 28.703125 19.6875 30.84375 18.511719 30.84375 16.90625 C 30.84375 15.089844 27.738281 13.25 25.28125 13.25 Z M 16.84375 14.375 C 12.9375 14.402344 9.90625 17.105469 10.09375 21.59375 C 10.199219 23.625 20.273438 14.851563 18.5625 14.53125 C 17.972656 14.425781 17.402344 14.371094 16.84375 14.375 Z M 33.21875 14.53125 C 32.664063 14.515625 32.089844 14.5625 31.5 14.65625 C 29.789063 14.871094 39.832031 23.613281 39.9375 21.6875 C 40.03125 17.292969 37.105469 14.632813 33.21875 14.53125 Z M 31.25 20 C 30.324219 20.003906 29.394531 20.25 28.59375 20.75 C 26.132813 22.355469 25.703125 26.070313 27.625 29.0625 C 29.65625 32.054688 33.320313 33.148438 35.78125 31.4375 C 38.238281 29.832031 38.644531 26.085938 36.71875 23.09375 C 35.394531 21.109375 33.285156 19.988281 31.25 20 Z M 18.78125 20.25 C 16.921875 20.410156 15.046875 21.535156 13.84375 23.40625 C 11.8125 26.398438 12.246094 30.144531 14.8125 31.75 C 17.273438 33.355469 20.90625 32.292969 22.9375 29.40625 C 24.96875 26.414063 24.535156 22.667969 21.96875 21.0625 C 21.007813 20.421875 19.898438 20.15625 18.78125 20.25 Z M 40.53125 23.5 C 38.113281 23.519531 39.886719 34.710938 42.0625 33.78125 C 44.414063 31.855469 45.269531 26.203125 40.78125 23.53125 C 40.695313 23.507813 40.609375 23.5 40.53125 23.5 Z M 9.5 23.6875 C 9.421875 23.6875 9.335938 23.695313 9.25 23.71875 C 4.757813 26.285156 5.507813 32.074219 7.96875 34 C 10.144531 34.933594 11.917969 23.707031 9.5 23.6875 Z M 25.40625 31.3125 C 21.984375 31.3125 19.3125 33.898438 19.3125 37 L 19.3125 37.09375 C 19.3125 40.195313 21.984375 42.65625 25.40625 42.65625 C 28.824219 42.65625 31.5 40.101563 31.5 37 C 31.5 33.902344 28.71875 31.421875 25.40625 31.3125 Z M 38.9375 33.53125 C 37.5 33.554688 35.761719 34.9375 34.15625 36.78125 C 32.230469 38.917969 31.171875 42.964844 32.5625 44.25 C 33.953125 45.210938 37.46875 45.101563 40.03125 41.46875 C 41.847656 39.007813 41.210938 35.070313 40.25 34 C 39.847656 33.679688 39.417969 33.523438 38.9375 33.53125 Z M 11.15625 34.375 C 10.785156 34.414063 10.414063 34.550781 10.09375 34.75 C 9.023438 35.609375 8.832031 38.488281 10.4375 41.375 C 12.789063 44.796875 16.078125 45.105469 17.46875 44.25 C 18.964844 43.179688 18.117188 39.4375 16.40625 37.40625 C 14.753906 35.496094 12.765625 34.214844 11.15625 34.375 Z M 24.4375 44.375 C 22.09375 44.527344 19.3125 45.472656 19.3125 46.59375 C 19.3125 47.554688 22.289063 50.136719 25.28125 50.03125 C 28.167969 50.140625 31.15625 47.5625 31.15625 46.28125 C 31.050781 45.101563 27.863281 44.269531 25.40625 44.375 C 25.097656 44.363281 24.773438 44.351563 24.4375 44.375 Z "/>
</svg>