<svg id="Layer_1" data-name="Layer 1" xmlns="http://www.w3.org/2000/svg" viewBox="0 0 436.58 498.95"><defs><style>.cls-1{fill:#fff;}</style></defs><title>calculator</title><path class="cls-1" d="M31.71,452.17V46.78A46.77,46.77,0,0,1,78.49,0h343a46.77,46.77,0,0,1,46.78,46.78V452.17A46.77,46.77,0,0,1,421.51,499h-343A46.77,46.77,0,0,1,31.71,452.17ZM405.92,175.41V74.06a11.69,11.69,0,0,0-11.69-11.69H105.77A11.69,11.69,0,0,0,94.08,74.06V175.41a11.69,11.69,0,0,0,11.69,11.7H394.23A11.69,11.69,0,0,0,405.92,175.41ZM156.45,300.15v-39a11.7,11.7,0,0,0-11.7-11.7h-39a11.69,11.69,0,0,0-11.69,11.7v39a11.69,11.69,0,0,0,11.69,11.69h39A11.69,11.69,0,0,0,156.45,300.15ZM405.92,424.89V261.17a11.69,11.69,0,0,0-11.69-11.7h-39a11.7,11.7,0,0,0-11.7,11.7V424.89a11.7,11.7,0,0,0,11.7,11.69h39A11.69,11.69,0,0,0,405.92,424.89Zm-249.47,0v-39a11.7,11.7,0,0,0-11.7-11.7h-39a11.69,11.69,0,0,0-11.69,11.7v39a11.69,11.69,0,0,0,11.69,11.69h39A11.7,11.7,0,0,0,156.45,424.89ZM281.18,300.15v-39a11.69,11.69,0,0,0-11.69-11.7h-39a11.69,11.69,0,0,0-11.69,11.7v39a11.69,11.69,0,0,0,11.69,11.69h39A11.69,11.69,0,0,0,281.18,300.15Zm0,124.74v-39a11.69,11.69,0,0,0-11.69-11.7h-39a11.69,11.69,0,0,0-11.69,11.7v39a11.69,11.69,0,0,0,11.69,11.69h39A11.69,11.69,0,0,0,281.18,424.89Z" transform="translate(-31.71)"/></svg>