<svg id="Layer_1" data-name="Layer 1" xmlns="http://www.w3.org/2000/svg" viewBox="0 0 250 500"><defs><style>.cls-1{fill:#fff;}</style></defs><title>thermometer</title><path class="cls-1" d="M315.5,375a62.5,62.5,0,1,1-93.75-54.12V156.25a31.25,31.25,0,0,1,62.5,0V320.88A62.46,62.46,0,0,1,315.5,375Zm31.25-82.67A125,125,0,0,1,253,500h-.89c-68.65-.48-124.46-57-124.11-125.65a124.52,124.52,0,0,1,31.25-82V93.75a93.75,93.75,0,0,1,187.5,0ZM331.12,375c0-33.53-18.91-51-31.25-64.94V93.75a46.88,46.88,0,1,0-93.75,0V310.06c-12.43,14.09-31.07,31.34-31.24,64.53-.22,42.85,34.72,78.24,77.56,78.53H253A78.21,78.21,0,0,0,331.12,375Z" transform="translate(-128 0)"/></svg>