<svg id="Layer_1" data-name="Layer 1" xmlns="http://www.w3.org/2000/svg" viewBox="0 0 499.43 499.57"><defs><style>.cls-1{fill:#fff;}</style></defs><title>wheel</title><path class="cls-1" d="M230,.77A248,248,0,0,0,99.41,50.36,249.67,249.67,0,0,0,16.32,338.71c18.7,49.43,53.61,92.35,98.92,121.57A251.54,251.54,0,0,0,207,495.89a248.66,248.66,0,0,0,111.92-6.18c67.43-19.14,125.26-68,155.83-131.76,15-31.22,22.71-61.95,24.39-97.13C502,202.72,484.29,146,448.62,98.76c-27.8-36.86-67.86-66.67-111.54-83A252,252,0,0,0,230,.77Zm41.3,57.39a191.44,191.44,0,0,1,39.73,9c8.78,3,19.08,7.21,19.35,8,.44,1.3-9.16,20.59-16.15,32.46-7.21,12.25-17.23,26.4-22.6,32-4,4.17-10.24,6.93-20.16,8.83-19.62,3.85-47.16,2-57.29-3.79-4.07-2.33-14.2-14.37-22.28-26.4a223,223,0,0,1-19.24-34.85c-4-9.27-4-9-2.17-9.65.81-.32,4-1.57,6.94-2.81,18.64-7.59,36.8-11.71,61-13.77C243.48,56.75,265,57.4,271.33,58.16Zm-126,41.36c12.41,18,23.52,38.7,29.43,54.8,2,5.52,2.06,5.69,1.73,11.38-.21,4.88-.65,6.88-2.54,12.73-6.4,19.35-21.68,42.28-32.74,49.16-2.44,1.47-14.91,4-25.15,5.15-18.16,1.95-43.63,1.47-56.69-1.13l-1.52-.33.38-3.63a235.64,235.64,0,0,1,4.6-25.31,192.84,192.84,0,0,1,70.63-106.4c3.2-2.44,6.07-4.28,6.29-4.17S142.5,95.45,145.32,99.52Zm227.8,2.38A234.73,234.73,0,0,1,397.19,126a195.81,195.81,0,0,1,35.55,64.17,208.91,208.91,0,0,1,8.19,38.05c.27,3.25.21,3.69-.65,4-5.59,1.62-44.66,2.33-57.67,1-18.11-1.89-22.28-3.3-29.49-9.92-14-12.95-29.54-41-30.51-55.28-.38-4.88.43-7.86,5.09-19.73,6.83-17.24,18.38-37.61,29.27-51.6l3.47-4.5,3.63,2.66C366.08,96.21,370.14,99.46,373.12,101.9ZM113,264.45c14.31,1.3,22.17,2.71,25.85,4.72,10.19,5.58,24.67,24.82,32.52,43.41,3,7.1,5.32,15.34,5.32,19,0,7.1-10.09,31.06-20.33,48.35a177.18,177.18,0,0,1-13.17,19.62L138,406.4l-1.68-1.14c-15-10.51-32.09-27.86-44-44.55a200.71,200.71,0,0,1-26-51.82c-4-12.52-7.43-28.5-8.19-38.75l-.38-4.5,3.74-.43c2.06-.22,5.7-.54,8.08-.76C76.38,263.85,106.35,263.85,113,264.45ZM433,265.75c4,.54,7.54,1.14,7.81,1.41.92.92-1.63,17.62-4.55,29.27-10.36,41.79-35.23,79.4-70,106.12l-5.8,4.45-2.22-3c-15-19.79-34.25-56.59-35.61-67.75-1.84-15.61,18.81-54.58,34.47-65.1,3.15-2.11,14.53-4.5,28.46-5.91C395.34,264.23,423.1,264.56,433,265.75Zm-166.83,83c13.45,1.74,18.92,4,24.34,10.14,14.58,16.31,28.56,38.91,37.29,60.21l2.17,5.26-2.06,1.09a176.46,176.46,0,0,1-18.75,7.2q-48.63,15.71-99.46,5.26a189.4,189.4,0,0,1-37-11.81c-4-1.79-4.23-2-3.9-3.31.54-2.38,9.7-20.7,14.36-28.89,9.7-16.86,22.71-34.8,27.8-38.21,4.5-3,12.85-5.58,22.39-6.88C240.82,347.76,258.6,347.7,266.18,348.73Z"/></svg>